<svg id="Camada_1" data-name="Camada 1" xmlns="http://www.w3.org/2000/svg" viewBox="0 0 11.28 40.59"><defs><style>.cls-1{fill:#fff;}</style></defs><title>enviar</title><path class="cls-1" d="M12.24,10.45V6.14h-4v4.8H7V4.7H18.13v6h-1.2V6.14h-3.5v4.31H12.24Z" transform="translate(-6.86 -4.7)"/><path class="cls-1" d="M12.85,12.75c0.82,0,1.5,0,2.15-.07V14l-1.32.08v0a2.93,2.93,0,0,1,1.5,2.63c0,1.1-.66,2.81-3.39,2.81H7V18.08h4.59c1.28,0,2.35-.48,2.35-1.84a2.12,2.12,0,0,0-2.15-2H7V12.75h5.81Z" transform="translate(-6.86 -4.7)"/><path class="cls-1" d="M15,22.23l-4.47,1.56a20.47,20.47,0,0,1-2,.64v0c0.66,0.18,1.32.41,2,.67L15,26.7v1.51L7,25.09V23.71l8-3v1.55Z" transform="translate(-6.86 -4.7)"/><path class="cls-1" d="M7,29.58h8V31H7V29.58Zm10.2,1.61a0.9,0.9,0,0,1,0-1.79,0.88,0.88,0,0,1,.91.91A0.86,0.86,0,0,1,17.24,31.2Z" transform="translate(-6.86 -4.7)"/><path class="cls-1" d="M7,37.84l1-.12v0a3,3,0,0,1-1.18-2.43,2.27,2.27,0,0,1,2.29-2.43c1.92,0,3,1.71,3,4.79h0.16a1.64,1.64,0,0,0,1.84-1.81,4,4,0,0,0-.59-2.07l1-.33A4.94,4.94,0,0,1,15.18,36c0,2.43-1.66,3-3.26,3h-3A11.22,11.22,0,0,0,7,39.16V37.84Zm4.06-.21c0-1.58-.25-3.37-1.79-3.37a1.28,1.28,0,0,0-1.38,1.37,2,2,0,0,0,1.33,1.92,1.53,1.53,0,0,0,.46.08H11.1Z" transform="translate(-6.86 -4.7)"/><path class="cls-1" d="M12.52,41.36c0.94,0,1.74,0,2.48-.07v1.27l-1.56,0v0.07a2.39,2.39,0,0,1,1.74,2.2,1.55,1.55,0,0,1,0,.41H13.77a2.15,2.15,0,0,0,0-.49A2,2,0,0,0,12,42.86a4.14,4.14,0,0,0-.67-0.07H7V41.36h5.48Z" transform="translate(-6.86 -4.7)"/></svg>